<svg xmlns="http://www.w3.org/2000/svg" width="410" height="404" viewBox="0 0 410 404" fill="none">
  <path d="M399.641 59.5246L215.643 388.545C211.844 395.338 202.084 395.378 198.228 388.618L10.5817 59.5563C6.38087 52.1896 12.6802 43.2665 21.0281 44.7586L205.223 77.6824C206.398 77.8924 207.601 77.8904 208.776 77.6763L389.119 44.8058C397.439 43.2894 403.768 52.1434 399.641 59.5246Z" fill="url(#paint0_linear)"/>
  <path d="M292.965 1.5744L156.801 28.2552C154.563 28.6937 152.906 30.5903 152.771 32.8664L144.395 174.33C144.198 177.683 147.258 180.275 150.51 179.498L188.42 170.593C191.967 169.746 195.172 172.603 194.443 176.196L183.18 232.297C182.422 236.033 185.907 239.316 189.57 238.238L212.947 231.489C216.61 230.411 220.095 233.694 219.337 237.43L201.398 324.93C200.278 330.294 207.486 333.249 210.492 328.621L212.5 325.5L323.905 102.789C325.62 99.3444 322.723 95.395 318.957 96.1402L280.462 103.794C276.748 104.529 273.498 101.214 274.494 97.5724L298.421 9.6536C299.417 6.01177 296.167 2.69651 292.453 3.43175Z" fill="url(#paint1_linear)"/>
  <defs>
    <linearGradient id="paint0_linear" x1="6.00017" y1="32.9999" x2="235" y2="344" gradientUnits="userSpaceOnUse">
      <stop stop-color="#41D1FF"/>
      <stop offset="1" stop-color="#BD34FE"/>
    </linearGradient>
    <linearGradient id="paint1_linear" x1="194.651" y1="8.81818" x2="236.076" y2="292.989" gradientUnits="userSpaceOnUse">
      <stop stop-color="#FFEA83"/>
      <stop offset="0.0833333" stop-color="#FFDD35"/>
      <stop offset="1" stop-color="#FFA800"/>
    </linearGradient>
  </defs>
</svg>
